<svg height="50px" width="50px" id="Layer_1" data-name="Layer 1" xmlns="http://www.w3.org/2000/svg" viewBox="0 0 149.13 131.97"><defs><style>.cls{fill:#fff}</style></defs><title>logo-white</title><path class="cls" d="M287.42,131.86a10.05,10.05,0,0,1,4.86.44,45.42,45.42,0,0,1,8.29,3.26,1.32,1.32,0,0,0-.4-.88,21.61,21.61,0,0,0-9.2-7.17c-1-.45-1.47-.82-1.57-1.61.05-.49.11-1,.12-1.48s-.09-.74-.12-1.11a15.69,15.69,0,0,0-.66-4.54c-3-10.3-15.31-11.25-16.37-11.25-4-.24-8,1.72-11.11,4.2l-2.62,2.89a2.29,2.29,0,0,1-1.1.48c-6.2,2.08-11.36,4.11-15.72,6a16.81,16.81,0,0,1,1.69-1.08c.62-.35,1.29-.64,2-1s1.35-.52,2-.72l.17,0c-.07-1.39-.15-2.77-.22-4.16q-.33-5.79-.64-11.62c-.48-9.26-1-18.84-1.55-28.4a5.85,5.85,0,0,0-2.08-4.44,6,6,0,0,0-5-1,6.65,6.65,0,0,0-2.75,1.23l2.28,34.32-4.28-35-.11-.58-.05-.25a7.19,7.19,0,0,0-1.78-4,6.4,6.4,0,0,0-8.27-.55,9.19,9.19,0,0,0-1.93,1.76L231.47,109,219.7,66.79c-.5-1.44-1-2.89-1.54-4.32a6.4,6.4,0,0,0-6.44-4.33,8.76,8.76,0,0,0-6.26,3.1c.45,1.22,1,2.64,1.55,4.26,1.85,5,4.32,11.67,6.78,18.34l9.94,26.65L212.85,84.21l-7.44-18.09c-.56-1.4-1.06-2.64-1.51-3.74a6.74,6.74,0,0,0-10.4-.76,6.42,6.42,0,0,0-1.85,5.73l28.7,42.91-29.69-41a7.51,7.51,0,0,0-2.65.15,7.07,7.07,0,0,0-5.15,5.88,6.51,6.51,0,0,0,.71,3.92L220,115.85l-37.44-35A3.8,3.8,0,0,0,182,81a9.56,9.56,0,0,0-4.34,4,6.51,6.51,0,0,0,1.72,8.3l1.1.92L211.42,113,181.94,97a8.57,8.57,0,0,0-3.25,1.39,6.37,6.37,0,0,0-2.84,5.5,6.58,6.58,0,0,0,3.19,5.28l33.84,11-32.2-8.63a7,7,0,0,0-3.63,4,5.43,5.43,0,0,0,2.93,6.73l5.65,2.54,5.67,2.54,8.81,3.91,8.8,3.92,7.28,3.4a12.15,12.15,0,0,1-1.56,1.21l-8.37,6.94c8.06-1.9,21.56-4.6,27.73-3a12.73,12.73,0,0,0,12.62-4,1.48,1.48,0,0,1,2.3,1.86,15.66,15.66,0,0,1-15.72,5,15.8,15.8,0,0,0-3.64-.4c4.68,8.42,15.53,13.91,27.55,14l3.08,4.07c.28.37.67.76.43,1.24s-.84.47-1.34.4a3.05,3.05,0,0,0-2.18.28c-.21.14-.41.31-.36.61a.42.42,0,0,0,.47.35c2.5-.22,4.49,1,6.45,2.27a50.84,50.84,0,0,1,9.36,6.95,7.7,7.7,0,0,1,1.58,2.28c.12.27.17.72.61.56s.35-.51.35-.83a5.66,5.66,0,0,0-.87-2.28c-.15-.3-.56-.61-.17-1s.7-.07,1,.13a12,12,0,0,1,3.34,3.13c.19.27.29.8.74.61s.38-.7.31-1.13a.48.48,0,0,0-.07-.2c-2.14-3.36-4-7-8.43-8-1.66-.39-3.26-1.06-4.89-1.6a4.34,4.34,0,0,1-2.17-1.66c-1.58-2.11-3.17-4.21-4.76-6.32a37.93,37.93,0,0,0,11.36-2.34,3.42,3.42,0,0,1,.71.57c.56.69,1.25,1.28,1.86,1.92a.78.78,0,0,1,.23.88.8.8,0,0,1-.89.47,2,2,0,0,0-1.62.37c-.13.12-.27.26-.22.46s.25.23.43.22c3.77-.07,6.81,1.87,10,3.55,1.57.84,3.27,1.47,4.41,2.95.32.43.66.85,1,1.28.13.17.2.44.46.34a.44.44,0,0,0,.22-.64,14.78,14.78,0,0,0-.77-1.41,1.58,1.58,0,0,1-.37-1c.05-.45.23-.85.74-.47a14.06,14.06,0,0,1,3.13,2.41c.18.24.32.69.71.42s.13-.65-.08-.94c-2-2.87-4.26-5.27-7.95-5.79-1.45-.21-2.87-.59-4.31-.87a2.2,2.2,0,0,1-1.21-.64c-.91-.91-1.83-1.81-2.73-2.73-.29-.29-.7-.59-.49-1.09a19.77,19.77,0,0,1,1.12-2.28c7.33-4.07,12.13-10.56,12.18-17.92a17,17,0,0,0-.52-4.31,1.5,1.5,0,0,1,.18-1.17C287.21,132.28,287.3,132.07,287.42,131.86Zm-9.56-9.57a1.93,1.93,0,0,1-1.7-1.84,2,2,0,0,1,1.88-1.58,1.73,1.73,0,0,1,1.59,1.81A1.66,1.66,0,0,1,277.86,122.29Z" transform="translate(-175.84 -58.13)"/><path class="cls" d="M218.68,190.1a2.42,2.42,0,0,1-.81-4.7l103.88-37a2.41,2.41,0,1,1,1.61,4.55L219.49,190A2.56,2.56,0,0,1,218.68,190.1Z" transform="translate(-175.84 -58.13)"/></svg>
