<svg xmlns="http://www.w3.org/2000/svg" viewBox="0 0 149.13 131.97"><defs><style>.cls-1{fill:#fff;}</style></defs><title>Asset 1</title><g id="Layer_2" data-name="Layer 2"><g id="Layer_1-2" data-name="Layer 1"><path class="cls-1" d="M111.58,73.74a9.93,9.93,0,0,1,4.86.43,46.45,46.45,0,0,1,8.29,3.26,1.37,1.37,0,0,0-.4-.88,21.69,21.69,0,0,0-9.2-7.17c-1-.45-1.47-.82-1.58-1.61a14.53,14.53,0,0,0,.13-1.48c0-.38-.09-.74-.12-1.11a15.57,15.57,0,0,0-.66-4.53c-3-10.31-15.31-11.25-16.37-11.26-4-.24-8,1.72-11.11,4.2L82.8,56.48a2.38,2.38,0,0,1-1.1.48C75.49,59,70.33,61.07,66,63a18.19,18.19,0,0,1,1.7-1.08c.62-.35,1.29-.64,1.94-1s1.36-.52,2-.72l.17,0c-.07-1.39-.15-2.77-.23-4.16-.21-3.86-.43-7.73-.63-11.61-.49-9.27-1-18.84-1.55-28.41a5.85,5.85,0,0,0-2.08-4.44,6.07,6.07,0,0,0-5-1,6.61,6.61,0,0,0-2.74,1.23l2.28,34.32-4.28-35-.11-.58,0-.25a7.14,7.14,0,0,0-1.79-4,6.39,6.39,0,0,0-8.26-.55,9,9,0,0,0-1.93,1.77L55.62,50.9,43.86,8.67c-.5-1.45-1-2.9-1.54-4.33A6.42,6.42,0,0,0,35.88,0a8.76,8.76,0,0,0-6.26,3.1c.44,1.22,1,2.64,1.55,4.26C33,12.37,35.49,19,38,25.71l9.94,26.65L37,26.08,29.57,8C29,6.6,28.5,5.35,28.06,4.25A6.74,6.74,0,0,0,17.65,3.5a6.41,6.41,0,0,0-1.84,5.72l28.7,42.91-29.69-41a7.27,7.27,0,0,0-2.65.14A7.08,7.08,0,0,0,7,17.15a6.44,6.44,0,0,0,.71,3.92L44.12,57.72l-37.43-35c-.18.06-.36.1-.54.18a9.59,9.59,0,0,0-4.35,4,6.52,6.52,0,0,0,1.72,8.3l1.11.92,31,18.75L6.1,38.91A8.51,8.51,0,0,0,2.85,40.3,6.38,6.38,0,0,0,0,45.8,6.55,6.55,0,0,0,3.2,51.08L37,62.09,4.83,53.47a7,7,0,0,0-3.62,4,5.44,5.44,0,0,0,2.93,6.74l5.65,2.53,5.67,2.54,8.81,3.92q4.41,1.95,8.8,3.91l7.28,3.41a15.27,15.27,0,0,1-1.56,1.21l-8.38,6.93c8.07-1.9,21.57-4.6,27.74-3a12.73,12.73,0,0,0,12.62-4,1.48,1.48,0,0,1,2.3,1.86,15.7,15.7,0,0,1-15.73,5,15.59,15.59,0,0,0-3.63-.41c4.68,8.42,15.53,13.92,27.55,14l3.08,4.08c.28.37.67.75.43,1.24s-.85.46-1.34.39a3.05,3.05,0,0,0-2.18.28c-.22.14-.41.31-.36.61a.42.42,0,0,0,.47.36c2.49-.23,4.49,1,6.45,2.26a50.84,50.84,0,0,1,9.36,6.95,7.61,7.61,0,0,1,1.57,2.28c.12.27.17.72.62.56s.35-.51.34-.83a5.51,5.51,0,0,0-.86-2.28c-.15-.29-.56-.61-.18-.94s.7-.07,1,.12a12,12,0,0,1,3.33,3.13c.19.27.3.8.75.62s.38-.71.31-1.14a.48.48,0,0,0-.07-.2c-2.14-3.36-4-7-8.43-8-1.66-.39-3.26-1.06-4.89-1.6a4.34,4.34,0,0,1-2.17-1.66c-1.58-2.11-3.18-4.21-4.76-6.32a37.62,37.62,0,0,0,11.36-2.34,3.7,3.7,0,0,1,.71.57,25.9,25.9,0,0,0,1.86,1.92.77.77,0,0,1-.66,1.35,2,2,0,0,0-1.62.37c-.14.12-.27.26-.22.46s.24.23.43.22c3.76-.07,6.81,1.87,10,3.55,1.57.84,3.28,1.47,4.42,2.95l1,1.28c.12.17.2.44.46.34a.45.45,0,0,0,.22-.64,15.93,15.93,0,0,0-.77-1.4,1.63,1.63,0,0,1-.37-1c0-.45.23-.84.74-.47a14.07,14.07,0,0,1,3.12,2.41c.19.24.32.69.71.43s.13-.66-.07-1c-2-2.86-4.26-5.27-8-5.79-1.44-.21-2.87-.59-4.3-.87a2.28,2.28,0,0,1-1.22-.63c-.9-.92-1.82-1.82-2.72-2.74-.29-.29-.7-.59-.49-1.09a21.13,21.13,0,0,1,1.11-2.28c7.34-4.07,12.13-10.56,12.19-17.92a17.41,17.41,0,0,0-.52-4.31,1.43,1.43,0,0,1,.18-1.16C111.37,74.15,111.46,73.94,111.58,73.74ZM102,64.17a1.94,1.94,0,0,1-1.7-1.85,2,2,0,0,1,1.88-1.58,1.72,1.72,0,0,1,1.58,1.81A1.66,1.66,0,0,1,102,64.17Z"/><path class="cls-1" d="M42.84,132a2.42,2.42,0,0,1-.81-4.7l103.87-37a2.41,2.41,0,1,1,1.62,4.55l-103.87,37A2.56,2.56,0,0,1,42.84,132Z"/></g></g></svg>