<svg height="12.5vw" width="20vw" xmlns="http://www.w3.org/2000/svg" viewBox="0 0 99.49 51.24"><defs><style>.cls-1{fill: #30d3c5}</style></defs><title>logo</title><g  id="Layer_2" data-name="Layer 2"><g id="Layer_1-2" data-name="Layer 1"><path class="cls-1" d="M3.05,48.56l-.42.4a1.31,1.31,0,0,0-1-.45,1,1,0,0,0-.76.31,1,1,0,0,0-.31.76,1.13,1.13,0,0,0,.14.56,1,1,0,0,0,.38.38,1.19,1.19,0,0,0,.56.14,1.12,1.12,0,0,0,.48-.1,1.62,1.62,0,0,0,.47-.35l.41.42a2.2,2.2,0,0,1-.66.47,1.8,1.8,0,0,1-.71.14A1.61,1.61,0,0,1,0,49.58a1.56,1.56,0,0,1,.82-1.43,1.72,1.72,0,0,1,.86-.22,1.78,1.78,0,0,1,1.37.63Z"/><path class="cls-1" d="M4.89,48h.6v2.58h.87v.57H4.89Z"/><path class="cls-1" d="M8.13,48H9.85v.59H8.73v.56H9.85v.58H8.73v.83H9.85v.59H8.13Z"/><path class="cls-1" d="M12.68,48h.61l1.21,3.15h-.62l-.25-.65H12.35l-.26.65h-.62Zm.31.83-.42,1.09h.84Z"/><path class="cls-1" d="M16.28,48h.58l1.34,2.07V48h.6v3.15h-.57l-1.35-2.07v2.07h-.6Z"/><path class="cls-1" d="M20.84,48h1.72v.59H21.43v.56h1.13v.58H21.43v.83h1.13v.59H20.84Z"/><path class="cls-1" d="M24.47,48h.64a2.19,2.19,0,0,1,.74.09.75.75,0,0,1,.35.31,1,1,0,0,1,.14.51.86.86,0,0,1-.15.52.9.9,0,0,1-.45.32l.75,1.4h-.66l-.7-1.34h-.06v1.34h-.6Zm.6,1.23h.19a.71.71,0,0,0,.39-.08.28.28,0,0,0,.11-.24.35.35,0,0,0-.05-.18.33.33,0,0,0-.15-.11.85.85,0,0,0-.33,0h-.16Z"/><path class="cls-1" d="M30.83,48h.6V49.2h1V48h.61v3.15h-.61V49.78h-1v1.38h-.6Z"/><path class="cls-1" d="M36.61,47.93a1.58,1.58,0,0,1,1.15.48,1.63,1.63,0,0,1,.48,1.18,1.59,1.59,0,0,1-.48,1.17,1.55,1.55,0,0,1-1.15.48,1.57,1.57,0,0,1-1.17-.49A1.62,1.62,0,0,1,35,49.58a1.59,1.59,0,0,1,.82-1.43A1.58,1.58,0,0,1,36.61,47.93Zm0,.59a1,1,0,0,0-.73.3,1,1,0,0,0-.3.77,1,1,0,0,0,.38.83,1,1,0,0,0,1.39-.07,1.06,1.06,0,0,0,.3-.76,1,1,0,0,0-.3-.76A1,1,0,0,0,36.6,48.52Z"/><path class="cls-1" d="M40.42,48H41l.73,2.19L42.47,48h.59l.52,3.15H43l-.34-2-.67,2h-.53l-.66-2-.35,2h-.58Z"/><path class="cls-1" d="M45.38,48H47.1v.59H46v.56H47.1v.58H46v.83H47.1v.59H45.38Z"/><path class="cls-1" d="M50.62,48.44l-.44.39a.64.64,0,0,0-.48-.33.29.29,0,0,0-.19.07.19.19,0,0,0-.08.14.24.24,0,0,0,.06.15,3.46,3.46,0,0,0,.44.4c.23.19.36.32.41.37a1.13,1.13,0,0,1,.26.35.86.86,0,0,1,.08.36.82.82,0,0,1-.27.64,1,1,0,0,1-.7.26,1,1,0,0,1-.58-.17,1.27,1.27,0,0,1-.43-.52l.5-.3c.15.28.33.42.52.42a.37.37,0,0,0,.26-.09.28.28,0,0,0,.11-.21.37.37,0,0,0-.08-.21,1.92,1.92,0,0,0-.35-.33,3.62,3.62,0,0,1-.66-.65.81.81,0,0,1-.15-.45.75.75,0,0,1,.25-.57.87.87,0,0,1,.61-.23,1,1,0,0,1,.45.11A1.59,1.59,0,0,1,50.62,48.44Z"/><path class="cls-1" d="M56.06,48h.61l1.21,3.15h-.62L57,50.51H55.73l-.26.65h-.62Zm.31.83L56,49.93h.84Z"/><path class="cls-1" d="M59.66,48h.58l1.34,2.07V48h.6v3.15h-.57l-1.35-2.07v2.07h-.6Z"/><path class="cls-1" d="M64.22,48h.71a2.38,2.38,0,0,1,1,.17,1.38,1.38,0,0,1,.55.55,2,2,0,0,1,.09,1.57,1.37,1.37,0,0,1-.33.5,1.12,1.12,0,0,1-.46.28,3.32,3.32,0,0,1-.86.08h-.72Zm.59.58v2h.28a1.48,1.48,0,0,0,.6-.09.72.72,0,0,0,.3-.32,1.15,1.15,0,0,0,.12-.55,1.05,1.05,0,0,0-.28-.77,1.11,1.11,0,0,0-.81-.25Z"/><path class="cls-1" d="M71.14,48h.63a2,2,0,0,1,.75.1.75.75,0,0,1,.36.3,1,1,0,0,1,.13.51.88.88,0,0,1-.17.55.84.84,0,0,1-.47.3,2.36,2.36,0,0,1-.63,0v1.34h-.6Zm.6,1.23h.19a1.09,1.09,0,0,0,.31,0,.3.3,0,0,0,.14-.11.35.35,0,0,0,.05-.18.28.28,0,0,0-.14-.26.71.71,0,0,0-.38-.07h-.17Z"/><path class="cls-1" d="M75.87,48h.61l1.21,3.15h-.63l-.24-.65H75.53l-.25.65h-.62Zm.31.83-.43,1.09h.85Z"/><path class="cls-1" d="M81.12,48.44l-.45.39a.61.61,0,0,0-.47-.33.35.35,0,0,0-.2.07.21.21,0,0,0-.07.14.3.3,0,0,0,0,.15,4.45,4.45,0,0,0,.44.4c.23.19.37.32.42.37a1.13,1.13,0,0,1,.26.35.93.93,0,0,1-.19,1,1,1,0,0,1-.7.26,1,1,0,0,1-.59-.17,1.35,1.35,0,0,1-.43-.52l.51-.3c.15.28.32.42.52.42a.39.39,0,0,0,.26-.09.26.26,0,0,0,.1-.21.35.35,0,0,0-.07-.21,2.35,2.35,0,0,0-.35-.33,3.44,3.44,0,0,1-.67-.65.81.81,0,0,1-.15-.45.79.79,0,0,1,.25-.57.9.9,0,0,1,.62-.23,1.06,1.06,0,0,1,.45.11A1.73,1.73,0,0,1,81.12,48.44Z"/><path class="cls-1" d="M82.75,48h1.74v.59h-.57v2.56h-.61V48.6h-.56Z"/><path class="cls-1" d="M86.19,48h.6v2a1.09,1.09,0,0,0,0,.37.35.35,0,0,0,.15.17.53.53,0,0,0,.26.07.5.5,0,0,0,.27-.08.35.35,0,0,0,.16-.18,1.42,1.42,0,0,0,0-.43V48h.6v1.88a2.49,2.49,0,0,1,0,.65.92.92,0,0,1-.2.36,1,1,0,0,1-.35.25,1.11,1.11,0,0,1-.46.09,1.17,1.17,0,0,1-.6-.16,1,1,0,0,1-.36-.39,2.16,2.16,0,0,1-.11-.8Z"/><path class="cls-1" d="M90.37,48H91a2.15,2.15,0,0,1,.74.09.77.77,0,0,1,.36.31,1,1,0,0,1,.13.51.86.86,0,0,1-.15.52.83.83,0,0,1-.44.32l.74,1.4h-.65L91,49.82H91v1.34h-.6Zm.6,1.23h.19a.77.77,0,0,0,.4-.08.34.34,0,0,0,0-.42.3.3,0,0,0-.14-.11.85.85,0,0,0-.33,0H91Z"/><path class="cls-1" d="M94.19,48h1.72v.59H94.79v.56h1.12v.58H94.79v.83h1.12v.59H94.19Z"/><path class="cls-1" d="M99.44,48.44l-.45.39a.61.61,0,0,0-.47-.33.32.32,0,0,0-.2.07.17.17,0,0,0-.07.14.3.3,0,0,0,0,.15,4.45,4.45,0,0,0,.44.4c.23.19.37.32.42.37a1.32,1.32,0,0,1,.26.35.86.86,0,0,1,.07.36.82.82,0,0,1-.27.64,1,1,0,0,1-.69.26,1,1,0,0,1-.59-.17,1.27,1.27,0,0,1-.43-.52l.51-.3c.15.28.32.42.52.42a.39.39,0,0,0,.26-.09.26.26,0,0,0,.1-.21.31.31,0,0,0-.08-.21,1.92,1.92,0,0,0-.35-.33,3.62,3.62,0,0,1-.66-.65.81.81,0,0,1-.15-.45.75.75,0,0,1,.25-.57.9.9,0,0,1,.62-.23A1,1,0,0,1,99,48,1.61,1.61,0,0,1,99.44,48.44Z"/><path class="cls-1" d="M62.45,25.3a3.39,3.39,0,0,1,1.66.15A16.05,16.05,0,0,1,67,26.57a.45.45,0,0,0-.14-.3,7.39,7.39,0,0,0-3.15-2.46c-.36-.15-.51-.28-.54-.55s0-.34,0-.51,0-.25,0-.38a5.56,5.56,0,0,0-.23-1.56c-1-3.53-5.25-3.86-5.62-3.86a5.87,5.87,0,0,0-3.81,1.44l-.9,1a.83.83,0,0,1-.38.17c-2.13.71-3.9,1.41-5.39,2.07.18-.13.38-.25.58-.37a6.9,6.9,0,0,1,.67-.32c.23-.08.46-.18.7-.25h.06c0-.48-.05-1-.08-1.43-.08-1.33-.15-2.65-.22-4-.17-3.18-.34-6.46-.53-9.74A2,2,0,0,0,47.27,4a2.1,2.1,0,0,0-1.71-.36,2.43,2.43,0,0,0-1,.43l.79,11.77-1.47-12,0-.2,0-.09a2.51,2.51,0,0,0-.61-1.37A2.21,2.21,0,0,0,40.42,2a3.25,3.25,0,0,0-.66.61l3.49,14.89L39.21,3c-.17-.49-.35-1-.53-1.48A2.21,2.21,0,0,0,36.47,0a3,3,0,0,0-2.15,1.07l.53,1.46,2.33,6.29L40.59,18,36.86,9,34.3,2.74l-.51-1.28a2.32,2.32,0,0,0-3.58-.26,2.2,2.2,0,0,0-.63,2l9.85,14.73L29.24,3.82a2.36,2.36,0,0,0-.91.05,2.42,2.42,0,0,0-1.77,2,2.19,2.19,0,0,0,.25,1.34L39.3,19.81l-12.85-12-.18.06a3.24,3.24,0,0,0-1.49,1.39,2.21,2.21,0,0,0,.59,2.84l.37.32,10.63,6.44L26.25,13.35a3,3,0,0,0-1.12.48,2.18,2.18,0,0,0-1,1.89,2.22,2.22,0,0,0,1.1,1.81l11.61,3.78-11-3a2.39,2.39,0,0,0-1.25,1.38,1.86,1.86,0,0,0,1,2.31l1.94.87,1.94.87,3,1.35,3,1.34L38,27.64a4,4,0,0,1-.53.41l-2.88,2.38c2.77-.65,7.4-1.58,9.52-1A4.36,4.36,0,0,0,48.44,28a.51.51,0,0,1,.72-.07.5.5,0,0,1,.07.71,5.39,5.39,0,0,1-5.39,1.72,5.6,5.6,0,0,0-1.25-.14c1.6,2.89,5.33,4.77,9.45,4.81l1.06,1.39c.1.13.23.26.15.43S53,37,52.79,37a1.08,1.08,0,0,0-.75.09c-.07,0-.14.11-.12.21a.13.13,0,0,0,.16.12,3.61,3.61,0,0,1,2.21.78A17.8,17.8,0,0,1,57.5,40.6a2.52,2.52,0,0,1,.54.79c0,.09.06.24.22.19s.12-.17.11-.29a1.74,1.74,0,0,0-.3-.78c0-.1-.19-.21,0-.32s.24,0,.34,0a4.18,4.18,0,0,1,1.14,1.08c.07.09.1.27.26.21s.13-.25.1-.39a.14.14,0,0,0,0-.07c-.73-1.16-1.38-2.39-2.89-2.74a17.33,17.33,0,0,1-1.68-.55,1.46,1.46,0,0,1-.75-.57c-.54-.72-1.09-1.44-1.63-2.17a12.88,12.88,0,0,0,3.9-.8,1.11,1.11,0,0,1,.24.2c.19.23.43.43.64.65a.28.28,0,0,1,.08.31.28.28,0,0,1-.3.16.69.69,0,0,0-.56.12s-.09.09-.08.16.09.08.15.08a6.93,6.93,0,0,1,3.42,1.22,4.06,4.06,0,0,1,1.51,1l.34.44c0,.05.06.15.15.11s.11-.14.08-.22-.17-.32-.26-.48a.46.46,0,0,1-.13-.33c0-.16.07-.3.25-.17a5.11,5.11,0,0,1,1.07.83c.07.08.11.24.25.15s0-.23,0-.33a4,4,0,0,0-2.73-2c-.5-.07-1-.2-1.48-.29a.78.78,0,0,1-.41-.22l-.94-.94c-.1-.1-.24-.2-.17-.38a7.9,7.9,0,0,1,.39-.78c2.51-1.39,4.16-3.62,4.18-6.15a6.18,6.18,0,0,0-.18-1.48.52.52,0,0,1,.06-.4A1.43,1.43,0,0,0,62.45,25.3ZM59.17,22a.67.67,0,0,1-.59-.63.68.68,0,0,1,.65-.54.58.58,0,0,1,.54.62A.57.57,0,0,1,59.17,22Z"/><path class="cls-1" d="M38.86,45.29a.83.83,0,0,1-.28-1.61L74.23,31a.83.83,0,1,1,.55,1.56L39.14,45.24A1,1,0,0,1,38.86,45.29Z"/></g></g></svg>